GIL06_slow2_RRA_states
nRows=5
nColumns=47

# SIMM Motion File Header:
name GIL06_slow2_RRA_states
datacolumns 47
datarows 5
otherdata 1
range 0.78483000000000036000 0.78683000000000036000
endheader
time	pelvis_tx	pelvis_ty	pelvis_tz	pelvis_tilt	pelvis_list	pelvis_rotation	hip_flexion_r	hip_adduction_r	hip_rotation_r	knee_angle_r	ankle_angle_r	subtalar_angle_r	mtp_angle_r	hip_flexion_l	hip_adduction_l	hip_rotation_l	knee_angle_l	ankle_angle_l	subtalar_angle_l	mtp_angle_l	lumbar_extension	lumbar_bending	lumbar_rotation	pelvis_tx_u	pelvis_ty_u	pelvis_tz_u	pelvis_tilt_u	pelvis_list_u	pelvis_rotation_u	hip_flexion_r_u	hip_adduction_r_u	hip_rotation_r_u	knee_angle_r_u	ankle_angle_r_u	subtalar_angle_r_u	mtp_angle_r_u	hip_flexion_l_u	hip_adduction_l_u	hip_rotation_l_u	knee_angle_l_u	ankle_angle_l_u	subtalar_angle_l_u	mtp_angle_l_u	lumbar_extension_u	lumbar_bending_u	lumbar_rotation_u
      0.78483000000000036000	      1.89262154959178510000	      0.81981282022229707000	     -0.28344190917559087000	     -4.48219131940456440000	     -3.73557336395078330000	      3.28032519635126810000	     27.21207971375342200000	      4.75321849112164680000	      3.66495219237252990000	    -17.35920381337707500000	     -5.49510475404142000000	      0.00000000000000133994	      0.00000000000001210725	     -5.80694559103278960000	     -3.61430772505061880000	     -6.14795720051015500000	    -29.14537031265749400000	     -2.41521752521985130000	     -0.00000000000002181712	     -0.00000000000012563533	      8.95599459595000980000	      3.28926810439632170000	      7.03491262339356640000	      0.92524545134410663000	      0.10354220376208687000	      0.15339443861559243000	     25.26836857440694900000	    -33.33261566531516000000	    -11.10282291725487800000	    -74.90047275139852400000	     62.54031840867917700000	      1.93277762131405660000	    -35.93139543877075000000	     95.50928568484310700000	      0.00000000000008337423	      0.00000000000002395710	     74.45644524801532800000	    -82.78586072465687100000	     10.49860337404862200000	   -272.32545534926709000000	   -195.56229009833544000000	      0.00000000000009142043	     -0.00000000000070240250	    -23.80334544332634300000	     26.27991315257324000000	     35.51875163592286800000
      0.78533000000000042000	      1.89308397054696640000	      0.81986455922979740000	     -0.28336518450761927000	     -4.46955026765076280000	     -3.75218456914588840000	      3.27480977375522380000	     27.17451153959160600000	      4.78444070417411280000	      3.66605945234446340000	    -17.37694234341882500000	     -5.44745836165931860000	      0.00000000000000138399	      0.00000000000001211720	     -5.76961080645965210000	     -3.65567414790411420000	     -6.14261957582897990000	    -29.28165612573190700000	     -2.51305544393183040000	     -0.00000000000002177404	     -0.00000000000012598338	      8.94406479612455920000	      3.30230897554447410000	      7.05265706933640770000	      0.92443726860820907000	      0.10341215088700281000	      0.15350283727287004000	     25.29547782967230100000	    -33.11169212460913500000	    -10.95867155725068900000	    -75.37185901473169700000	     62.34757284288264900000	      2.49584772935501850000	    -35.02224342047427500000	     95.07388950322995000000	      0.00000000000009040526	      0.00000000000000589852	     74.88261364649913800000	    -82.67887610346322400000	     10.85150408125304900000	   -272.81665380249177000000	   -195.78560685666955000000	      0.00000000000008068439	     -0.00000000000069516421	    -23.91550150140948400000	     25.88313788438881600000	     35.45860937938526500000
      0.78583000000000036000	      1.89354598573662190000	      0.81991623068869068000	     -0.28328840772258335000	     -4.45689621589688210000	     -3.76868455659013970000	      3.26936672006768260000	     27.13670825661556300000	      4.81556511501432640000	      3.66744757639815020000	    -17.39422562162815200000	     -5.40003318515935500000	      0.00000000000000143275	      0.00000000000001211335	     -5.73206302675179290000	     -3.69698567121739520000	     -6.13710612820835970000	    -29.41818583781561400000	     -2.61099963796800870000	     -0.00000000000002173455	     -0.00000000000012632507	      8.93207946028572050000	      3.31515082332041990000	      7.07037080691115880000	      0.92362234422039768000	      0.10327199120095702000	      0.15360293031649955000	     25.32034109659418400000	    -32.88777204086093800000	    -10.81334873964413900000	    -75.84083341420876000000	     62.14913392690255700000	      3.05613479624871600000	    -34.11048134550522100000	     94.62456845796289400000	      0.00000000000010711259	     -0.00000000000002575386	     75.30848532551604500000	    -82.56631225390583500000	     11.20181329228608800000	   -273.30107900478413000000	   -195.98795586088522000000	      0.00000000000007672580	     -0.00000000000068043581	    -24.02546237259002400000	     25.48384944373200900000	     35.39591201566906200000
      0.78633000000000042000	      1.89400759176128110000	      0.81996782955122460000	     -0.28321158295441712000	     -4.44423030468722850000	     -3.78507184828068780000	      3.26399661437234250000	     27.09867112688349200000	      4.84658889558456530000	      3.66911509362521530000	    -17.41105242308048400000	     -5.35283606976836430000	      0.00000000000000148780	      0.00000000000001209478	     -5.69430236621711750000	     -3.73823953326510330000	     -6.13141820742449980000	    -29.55495607290200500000	     -2.70903987587785220000	     -0.00000000000002169535	     -0.00000000000012666981	      8.92003970276090460000	      3.32779241588552880000	      7.08805255874980840000	      0.92280064144600860000	      0.10312181316551393000	      0.15369476059410628000	     25.34293556407847000000	    -32.66089481014746800000	    -10.66688998230234200000	    -76.30728306323135300000	     61.94504018080655100000	      3.61346000089519850000	    -33.19631014007989500000	     94.16158698622517400000	      0.00000000000011213467	     -0.00000000000004362080	     75.73408588517730800000	    -82.44818722660406300000	     11.54945211073651400000	   -273.77871209899996000000	   -196.16915740068259000000	      0.00000000000008858870	     -0.00000000000070127385	    -24.13320908545013300000	     25.08210689500377200000	     35.33067914129260600000
      0.78683000000000036000	      1.89446878524449700000	      0.82001935084656408000	     -0.28313471433275722000	     -4.43155366210429950000	     -3.80134496495923060000	      3.25870001346000700000	     27.06040141308860600000	      4.87750921919110340000	      3.67106051425408800000	    -17.42742156456744600000	     -5.30587382079812820000	      0.00000000000000154283	      0.00000000000001207702	     -5.65632898133242890000	     -3.77943293418319560000	     -6.12555713123052040000	    -29.69196341826958000000	     -2.80716526053893430000	     -0.00000000000002165401	     -0.00000000000012701497	      8.90794662364836220000	      3.34023253098335320000	      7.10570106695798390000	      0.92197213823444246000	      0.10296170354200153000	      0.15377836626970187000	     25.36323935137978900000	    -32.43109931684855200000	    -10.51933117044676400000	    -76.77109489421165700000	     61.73533078740260300000	      4.16765152320744910000	    -32.27993670021588500000	     93.68526863318955100000	      0.00000000000010795206	     -0.00000000000003495411	     76.15944311694201500000	    -82.32451704367518600000	     11.89435929542583100000	   -274.24955393848205000000	   -196.32914659859856000000	      0.00000000000007965314	     -0.00000000000067742726	    -24.23872095106803600000	     24.67796955967748600000	     35.26293177543403300000
